<?xml version="1.0" standalone="no"?>
<!DOCTYPE svg PUBLIC "-//W3C//DTD SVG 20010904//EN"
 "http://www.w3.org/TR/2001/REC-SVG-20010904/DTD/svg10.dtd">
<svg version="1.0" xmlns="http://www.w3.org/2000/svg"
 width="1406.000000pt" height="1536.000000pt" viewBox="0 0 1406.000000 1536.000000"
 preserveAspectRatio="xMidYMid meet">

<g transform="translate(0.000000,1536.000000) scale(0.100000,-0.100000)"
fill="#8ec07c" stroke="none">
<path d="M7120 14200 l0 -40 -120 0 -120 0 0 -40 0 -40 -40 0 -40 0 0 40 0 40
-80 0 -80 0 0 -40 0 -40 -40 0 -40 0 0 -80 0 -80 -80 0 -80 0 0 -120 0 -120
-160 0 -160 0 0 40 0 40 -80 0 -80 0 0 40 0 40 -160 0 -160 0 0 40 0 40 -40 0
-40 0 0 -40 0 -40 -40 0 -40 0 0 -40 0 -40 -40 0 -40 0 0 40 0 40 -120 0 -120
0 0 -40 0 -40 -120 0 -120 0 0 -80 0 -80 -40 0 -40 0 0 -80 0 -80 40 0 40 0 0
-40 0 -40 -40 0 -40 0 0 -40 0 -40 -200 0 -200 0 0 -80 0 -80 -80 0 -80 0 0
40 0 40 -40 0 -40 0 0 40 0 40 -40 0 -40 0 0 40 0 40 -160 0 -160 0 0 -160 0
-160 40 0 40 0 0 -160 0 -160 -200 0 -200 0 0 40 0 40 -120 0 -120 0 0 -40 0
-40 -40 0 -40 0 0 -160 0 -160 -80 0 -80 0 0 -40 0 -40 -40 0 -40 0 0 -40 0
-40 -320 0 -320 0 0 -200 0 -200 -40 0 -40 0 0 -40 0 -40 -40 0 -40 0 0 -80 0
-80 40 0 40 0 0 -40 0 -40 40 0 40 0 0 -40 0 -40 -80 0 -80 0 0 -80 0 -80 -80
0 -80 0 0 -40 0 -40 -120 0 -120 0 0 -120 0 -120 40 0 40 0 0 -280 0 -280 -80
0 -80 0 0 -40 0 -40 -40 0 -40 0 0 -80 0 -80 -120 0 -120 0 0 -80 0 -80 40 0
40 0 0 -40 0 -40 40 0 40 0 0 -40 0 -40 -80 0 -80 0 0 -40 0 -40 -40 0 -40 0
0 -80 0 -80 -80 0 -80 0 0 -40 0 -40 -40 0 -40 0 0 -120 0 -120 -40 0 -40 0 0
-80 0 -80 -80 0 -80 0 0 -40 0 -40 -40 0 -40 0 0 -80 0 -80 40 0 40 0 0 -40 0
-40 80 0 80 0 0 -200 0 -200 160 0 160 0 0 40 0 40 40 0 40 0 0 40 0 40 40 0
40 0 0 40 0 40 40 0 40 0 0 -40 0 -40 120 0 120 0 0 -80 0 -80 200 0 200 0 0
40 0 40 40 0 40 0 0 40 0 40 160 0 160 0 0 -40 0 -40 120 0 120 0 0 -40 0 -40
400 0 400 0 0 -40 0 -40 -40 0 -40 0 0 -40 0 -40 -40 0 -40 0 0 -40 0 -40 -80
0 -80 0 0 -40 0 -40 -160 0 -160 0 0 120 0 120 -160 0 -160 0 0 -80 0 -80 40
0 40 0 0 -40 0 -40 -80 0 -80 0 0 -40 0 -40 120 0 120 0 0 -40 0 -40 240 0
240 0 0 40 0 40 80 0 80 0 0 40 0 40 80 0 80 0 0 40 0 40 40 0 40 0 0 40 0 40
40 0 40 0 0 40 0 40 40 0 40 0 0 40 0 40 40 0 40 0 0 40 0 40 80 0 80 0 0 40
0 40 120 0 120 0 0 40 0 40 160 0 160 0 0 40 0 40 400 0 400 0 0 -40 0 -40
120 0 120 0 0 -80 0 -80 -160 0 -160 0 0 -40 0 -40 -120 0 -120 0 0 -40 0 -40
-240 0 -240 0 0 40 0 40 -40 0 -40 0 0 40 0 40 -160 0 -160 0 0 -40 0 -40 120
0 120 0 0 -40 0 -40 -80 0 -80 0 0 -40 0 -40 -80 0 -80 0 0 -40 0 -40 -40 0
-40 0 0 -80 0 -80 40 0 40 0 0 40 0 40 40 0 40 0 0 40 0 40 480 0 480 0 0 -40
0 -40 -80 0 -80 0 0 -40 0 -40 -160 0 -160 0 0 -40 0 -40 -40 0 -40 0 0 -40 0
-40 120 0 120 0 0 40 0 40 120 0 120 0 0 -40 0 -40 -40 0 -40 0 0 -40 0 -40
80 0 80 0 0 40 0 40 40 0 40 0 0 80 0 80 40 0 40 0 0 40 0 40 40 0 40 0 0 40
0 40 40 0 40 0 0 40 0 40 40 0 40 0 0 40 0 40 200 0 200 0 0 -40 0 -40 120 0
120 0 0 -80 0 -80 40 0 40 0 0 -80 0 -80 40 0 40 0 0 -1120 0 -1120 -40 0 -40
0 0 -840 0 -840 -40 0 -40 0 0 -400 0 -400 -40 0 -40 0 0 -120 0 -120 -40 0
-40 0 0 -80 0 -80 -40 0 -40 0 0 -40 0 -40 -40 0 -40 0 0 -40 0 -40 -40 0 -40
0 0 -40 0 -40 -40 0 -40 0 0 -40 0 -40 -80 0 -80 0 0 -40 0 -40 -360 0 -360 0
0 40 0 40 -320 0 -320 0 0 -40 0 -40 -80 0 -80 0 0 -40 0 -40 -80 0 -80 0 0
-40 0 -40 -80 0 -80 0 0 -80 0 -80 80 0 80 0 0 40 0 40 120 0 120 0 0 40 0 40
360 0 360 0 0 -40 0 -40 -120 0 -120 0 0 -40 0 -40 -160 0 -160 0 0 -40 0 -40
-80 0 -80 0 0 -80 0 -80 200 0 200 0 0 40 0 40 320 0 320 0 0 40 0 40 200 0
200 0 0 -40 0 -40 -160 0 -160 0 0 -40 0 -40 -160 0 -160 0 0 -40 0 -40 -80 0
-80 0 0 -40 0 -40 360 0 360 0 0 40 0 40 200 0 200 0 0 40 0 40 80 0 80 0 0
40 0 40 80 0 80 0 0 40 0 40 80 0 80 0 0 40 0 40 40 0 40 0 0 -200 0 -200 40
0 40 0 0 -40 0 -40 80 0 80 0 0 -40 0 -40 40 0 40 0 0 -40 0 -40 80 0 80 0 0
80 0 80 -40 0 -40 0 0 40 0 40 -40 0 -40 0 0 200 0 200 40 0 40 0 0 -40 0 -40
40 0 40 0 0 -40 0 -40 40 0 40 0 0 -40 0 -40 40 0 40 0 0 -40 0 -40 80 0 80 0
0 -40 0 -40 160 0 160 0 0 -40 0 -40 120 0 120 0 0 -40 0 -40 160 0 160 0 0
80 0 80 -80 0 -80 0 0 40 0 40 -80 0 -80 0 0 40 0 40 120 0 120 0 0 -40 0 -40
200 0 200 0 0 -40 0 -40 280 0 280 0 0 80 0 80 -160 0 -160 0 0 40 0 40 320 0
320 0 0 -40 0 -40 240 0 240 0 0 80 0 80 -120 0 -120 0 0 40 0 40 -120 0 -120
0 0 40 0 40 -120 0 -120 0 0 40 0 40 360 0 360 0 0 -40 0 -40 120 0 120 0 0
-40 0 -40 40 0 40 0 0 40 0 40 40 0 40 0 0 40 0 40 -80 0 -80 0 0 40 0 40 -80
0 -80 0 0 40 0 40 -120 0 -120 0 0 40 0 40 -280 0 -280 0 0 -40 0 -40 -360 0
-360 0 0 40 0 40 -80 0 -80 0 0 40 0 40 -40 0 -40 0 0 40 0 40 -40 0 -40 0 0
40 0 40 -40 0 -40 0 0 40 0 40 -40 0 -40 0 0 80 0 80 -40 0 -40 0 0 80 0 80
-40 0 -40 0 0 280 0 280 -40 0 -40 0 0 840 0 840 -40 0 -40 0 0 840 0 840 -40
0 -40 0 0 320 0 320 40 0 40 0 0 120 0 120 40 0 40 0 0 80 0 80 40 0 40 0 0
40 0 40 40 0 40 0 0 40 0 40 280 0 280 0 0 -40 0 -40 40 0 40 0 0 -40 0 -40
80 0 80 0 0 -40 0 -40 40 0 40 0 0 -80 0 -80 40 0 40 0 0 -40 0 -40 80 0 80 0
0 40 0 40 -40 0 -40 0 0 40 0 40 80 0 80 0 0 -40 0 -40 160 0 160 0 0 40 0 40
-120 0 -120 0 0 40 0 40 -120 0 -120 0 0 40 0 40 -80 0 -80 0 0 40 0 40 480 0
480 0 0 -40 0 -40 80 0 80 0 0 40 0 40 -40 0 -40 0 0 40 0 40 -80 0 -80 0 0
40 0 40 -40 0 -40 0 0 40 0 40 80 0 80 0 0 40 0 40 -120 0 -120 0 0 -40 0 -40
-80 0 -80 0 0 -40 0 -40 -240 0 -240 0 0 40 0 40 -120 0 -120 0 0 40 0 40
-200 0 -200 0 0 40 0 40 120 0 120 0 0 40 0 40 520 0 520 0 0 -40 0 -40 160 0
160 0 0 -40 0 -40 120 0 120 0 0 -40 0 -40 40 0 40 0 0 -40 0 -40 40 0 40 0 0
-40 0 -40 40 0 40 0 0 -40 0 -40 80 0 80 0 0 -40 0 -40 40 0 40 0 0 -40 0 -40
120 0 120 0 0 -40 0 -40 240 0 240 0 0 40 0 40 80 0 80 0 0 40 0 40 -40 0 -40
0 0 80 0 80 40 0 40 0 0 40 0 40 -160 0 -160 0 0 -40 0 -40 -40 0 -40 0 0 -40
0 -40 40 0 40 0 0 -40 0 -40 -200 0 -200 0 0 40 0 40 -80 0 -80 0 0 40 0 40
-40 0 -40 0 0 40 0 40 -40 0 -40 0 0 40 0 40 440 0 440 0 0 40 0 40 80 0 80 0
0 40 0 40 200 0 200 0 0 -40 0 -40 40 0 40 0 0 -40 0 -40 200 0 200 0 0 80 0
80 160 0 160 0 0 -40 0 -40 80 0 80 0 0 -40 0 -40 160 0 160 0 0 200 0 200 80
0 80 0 0 40 0 40 40 0 40 0 0 80 0 80 -40 0 -40 0 0 40 0 40 -80 0 -80 0 0 40
0 40 -40 0 -40 0 0 120 0 120 -40 0 -40 0 0 40 0 40 -40 0 -40 0 0 40 0 40
-40 0 -40 0 0 80 0 80 -80 0 -80 0 0 40 0 40 -40 0 -40 0 0 40 0 40 40 0 40 0
0 40 0 40 40 0 40 0 0 80 0 80 -120 0 -120 0 0 -40 0 -40 -40 0 -40 0 0 80 0
80 40 0 40 0 0 40 0 40 -40 0 -40 0 0 40 0 40 -80 0 -80 0 0 40 0 40 -40 0
-40 0 0 120 0 120 -40 0 -40 0 0 80 0 80 80 0 80 0 0 120 0 120 40 0 40 0 0
120 0 120 -40 0 -40 0 0 40 0 40 -120 0 -120 0 0 40 0 40 -80 0 -80 0 0 40 0
40 -40 0 -40 0 0 40 0 40 -80 0 -80 0 0 -40 0 -40 -200 0 -200 0 0 40 0 40 40
0 40 0 0 40 0 40 40 0 40 0 0 80 0 80 -40 0 -40 0 0 40 0 40 -40 0 -40 0 0 40
0 40 -80 0 -80 0 0 -40 0 -40 -200 0 -200 0 0 40 0 40 40 0 40 0 0 40 0 40 80
0 80 0 0 40 0 40 40 0 40 0 0 120 0 120 -40 0 -40 0 0 40 0 40 -40 0 -40 0 0
40 0 40 40 0 40 0 0 40 0 40 -40 0 -40 0 0 40 0 40 -40 0 -40 0 0 40 0 40 40
0 40 0 0 80 0 80 -200 0 -200 0 0 40 0 40 -200 0 -200 0 0 40 0 40 -240 0
-240 0 0 40 0 40 -120 0 -120 0 0 -80 0 -80 -40 0 -40 0 0 200 0 200 -160 0
-160 0 0 40 0 40 -120 0 -120 0 0 40 0 40 -240 0 -240 0 0 -40 0 -40 -80 0
-80 0 0 80 0 80 40 0 40 0 0 40 0 40 -40 0 -40 0 0 40 0 40 -80 0 -80 0 0 80
0 80 -160 0 -160 0 0 40 0 40 -40 0 -40 0 0 40 0 40 -80 0 -80 0 0 -40z m720
-760 l0 -80 -40 0 -40 0 0 -80 0 -80 40 0 40 0 0 -80 0 -80 40 0 40 0 0 -40 0
-40 -120 0 -120 0 0 80 0 80 -40 0 -40 0 0 80 0 80 40 0 40 0 0 120 0 120 80
0 80 0 0 -80z m-1360 -280 l0 -40 -80 0 -80 0 0 -40 0 -40 -40 0 -40 0 0 80 0
80 120 0 120 0 0 -40z m720 -160 l0 -40 40 0 40 0 0 -40 0 -40 40 0 40 0 0
-40 0 -40 80 0 80 0 0 -40 0 -40 -120 0 -120 0 0 -40 0 -40 -80 0 -80 0 0 40
0 40 -40 0 -40 0 0 160 0 160 80 0 80 0 0 -40z m-1840 -160 l0 -40 40 0 40 0
0 -40 0 -40 120 0 120 0 0 -120 0 -120 -40 0 -40 0 0 80 0 80 -160 0 -160 0 0
-80 0 -80 -40 0 -40 0 0 -80 0 -80 -40 0 -40 0 0 40 0 40 -40 0 -40 0 0 80 0
80 80 0 80 0 0 40 0 40 40 0 40 0 0 80 0 80 -40 0 -40 0 0 40 0 40 80 0 80 0
0 -40z m880 -80 l0 -120 40 0 40 0 0 -120 0 -120 -40 0 -40 0 0 80 0 80 -40 0
-40 0 0 40 0 40 -120 0 -120 0 0 -160 0 -160 160 0 160 0 0 -120 0 -120 -40 0
-40 0 0 -40 0 -40 -40 0 -40 0 0 40 0 40 -40 0 -40 0 0 40 0 40 -40 0 -40 0 0
40 0 40 -40 0 -40 0 0 120 0 120 -40 0 -40 0 0 160 0 160 200 0 200 0 0 40 0
40 40 0 40 0 0 -120z m1760 40 l0 -80 -40 0 -40 0 0 80 0 80 40 0 40 0 0 -80z
m1040 40 l0 -40 -40 0 -40 0 0 -40 0 -40 -40 0 -40 0 0 -40 0 -40 -40 0 -40 0
0 80 0 80 40 0 40 0 0 40 0 40 80 0 80 0 0 -40z m-2080 -320 l0 -280 -40 0
-40 0 0 40 0 40 -80 0 -80 0 0 40 0 40 -120 0 -120 0 0 40 0 40 160 0 160 0 0
40 0 40 40 0 40 0 0 120 0 120 40 0 40 0 0 -280z m1520 200 l0 -80 -40 0 -40
0 0 40 0 40 -120 0 -120 0 0 -40 0 -40 -40 0 -40 0 0 80 0 80 200 0 200 0 0
-80z m-640 -240 l0 -80 -40 0 -40 0 0 -80 0 -80 -40 0 -40 0 0 -80 0 -80 -40
0 -40 0 0 -80 0 -80 -120 0 -120 0 0 80 0 80 -40 0 -40 0 0 -120 0 -120 40 0
40 0 0 -40 0 -40 40 0 40 0 0 -120 0 -120 -40 0 -40 0 0 -80 0 -80 -40 0 -40
0 0 40 0 40 -80 0 -80 0 0 -160 0 -160 80 0 80 0 0 -80 0 -80 40 0 40 0 0
-120 0 -120 -120 0 -120 0 0 -80 0 -80 40 0 40 0 0 -40 0 -40 120 0 120 0 0
-120 0 -120 -40 0 -40 0 0 -80 0 -80 -40 0 -40 0 0 -80 0 -80 -80 0 -80 0 0
120 0 120 -40 0 -40 0 0 80 0 80 -40 0 -40 0 0 440 0 440 40 0 40 0 0 160 0
160 40 0 40 0 0 400 0 400 120 0 120 0 0 -80 0 -80 40 0 40 0 0 -40 0 -40 80
0 80 0 0 120 0 120 -40 0 -40 0 0 40 0 40 -40 0 -40 0 0 40 0 40 40 0 40 0 0
40 0 40 160 0 160 0 0 -80z m960 40 l0 -40 -40 0 -40 0 0 -80 0 -80 -80 0 -80
0 0 40 0 40 40 0 40 0 0 80 0 80 80 0 80 0 0 -40z m-4240 -200 l0 -160 -40 0
-40 0 0 -40 0 -40 -40 0 -40 0 0 -40 0 -40 -40 0 -40 0 0 120 0 120 40 0 40 0
0 40 0 40 40 0 40 0 0 80 0 80 40 0 40 0 0 -160z m4560 80 l0 -80 -40 0 -40 0
0 40 0 40 -80 0 -80 0 0 40 0 40 120 0 120 0 0 -80z m-4160 -40 l0 -40 -40 0
-40 0 0 40 0 40 40 0 40 0 0 -40z m720 -40 l0 -80 40 0 40 0 0 -80 0 -80 40 0
40 0 0 -40 0 -40 40 0 40 0 0 -40 0 -40 40 0 40 0 0 -40 0 -40 40 0 40 0 0
-80 0 -80 40 0 40 0 0 -240 0 -240 40 0 40 0 0 -80 0 -80 -120 0 -120 0 0 80
0 80 -40 0 -40 0 0 80 0 80 40 0 40 0 0 160 0 160 -40 0 -40 0 0 -80 0 -80
-40 0 -40 0 0 -80 0 -80 -40 0 -40 0 0 -40 0 -40 -40 0 -40 0 0 -40 0 -40 -40
0 -40 0 0 80 0 80 -40 0 -40 0 0 160 0 160 40 0 40 0 0 -40 0 -40 120 0 120 0
0 120 0 120 -40 0 -40 0 0 40 0 40 -80 0 -80 0 0 40 0 40 40 0 40 0 0 80 0 80
-40 0 -40 0 0 120 0 120 40 0 40 0 0 -80z m800 -120 l0 -120 40 0 40 0 0 -40
0 -40 40 0 40 0 0 -40 0 -40 120 0 120 0 0 -160 0 -160 -40 0 -40 0 0 40 0 40
-40 0 -40 0 0 40 0 40 -80 0 -80 0 0 -40 0 -40 -40 0 -40 0 0 -40 0 -40 40 0
40 0 0 -80 0 -80 80 0 80 0 0 40 0 40 40 0 40 0 0 -80 0 -80 -40 0 -40 0 0
-120 0 -120 -40 0 -40 0 0 -80 0 -80 -40 0 -40 0 0 80 0 80 -40 0 -40 0 0 80
0 80 -40 0 -40 0 0 200 0 200 -40 0 -40 0 0 120 0 120 40 0 40 0 0 200 0 200
40 0 40 0 0 -120z m1520 80 l0 -40 40 0 40 0 0 -40 0 -40 160 0 160 0 0 -40 0
-40 -80 0 -80 0 0 -40 0 -40 -120 0 -120 0 0 -40 0 -40 -120 0 -120 0 0 40 0
40 40 0 40 0 0 80 0 80 40 0 40 0 0 80 0 80 40 0 40 0 0 -40z m-2960 -80 l0
-40 40 0 40 0 0 -80 0 -80 40 0 40 0 0 -40 0 -40 -200 0 -200 0 0 80 0 80 40
0 40 0 0 40 0 40 40 0 40 0 0 40 0 40 40 0 40 0 0 -40z m240 0 l0 -40 120 0
120 0 0 -120 0 -120 -80 0 -80 0 0 40 0 40 -40 0 -40 0 0 80 0 80 -40 0 -40 0
0 40 0 40 40 0 40 0 0 -40z m3520 0 l0 -40 120 0 120 0 0 -40 0 -40 -40 0 -40
0 0 -40 0 -40 -40 0 -40 0 0 -40 0 -40 40 0 40 0 0 -160 0 -160 40 0 40 0 0
-40 0 -40 80 0 80 0 0 -40 0 -40 160 0 160 0 0 -80 0 -80 -40 0 -40 0 0 -80 0
-80 -40 0 -40 0 0 -40 0 -40 -40 0 -40 0 0 -40 0 -40 -40 0 -40 0 0 -40 0 -40
-40 0 -40 0 0 -40 0 -40 -40 0 -40 0 0 -40 0 -40 -40 0 -40 0 0 80 0 80 40 0
40 0 0 40 0 40 40 0 40 0 0 40 0 40 40 0 40 0 0 40 0 40 40 0 40 0 0 120 0
120 -120 0 -120 0 0 -40 0 -40 -40 0 -40 0 0 -160 0 -160 -40 0 -40 0 0 -80 0
-80 -40 0 -40 0 0 -80 0 -80 -40 0 -40 0 0 -40 0 -40 -120 0 -120 0 0 40 0 40
40 0 40 0 0 40 0 40 40 0 40 0 0 80 0 80 40 0 40 0 0 80 0 80 40 0 40 0 0 480
0 480 -40 0 -40 0 0 -40 0 -40 -40 0 -40 0 0 -240 0 -240 -120 0 -120 0 0 -40
0 -40 -40 0 -40 0 0 -120 0 -120 40 0 40 0 0 -40 0 -40 80 0 80 0 0 -40 0 -40
-40 0 -40 0 0 -40 0 -40 -40 0 -40 0 0 -40 0 -40 -40 0 -40 0 0 -40 0 -40 -40
0 -40 0 0 200 0 200 -40 0 -40 0 0 80 0 80 40 0 40 0 0 160 0 160 40 0 40 0 0
40 0 40 40 0 40 0 0 40 0 40 40 0 40 0 0 40 0 40 -80 0 -80 0 0 -40 0 -40 -40
0 -40 0 0 -40 0 -40 -40 0 -40 0 0 -80 0 -80 -40 0 -40 0 0 -80 0 -80 -40 0
-40 0 0 -80 0 -80 -240 0 -240 0 0 40 0 40 40 0 40 0 0 120 0 120 40 0 40 0 0
40 0 40 40 0 40 0 0 40 0 40 80 0 80 0 0 40 0 40 80 0 80 0 0 40 0 40 80 0 80
0 0 40 0 40 80 0 80 0 0 40 0 40 80 0 80 0 0 40 0 40 40 0 40 0 0 40 0 40 40
0 40 0 0 40 0 40 40 0 40 0 0 -40z m-1840 -160 l0 -40 -40 0 -40 0 0 40 0 40
40 0 40 0 0 -40z m2960 -80 l0 -40 -80 0 -80 0 0 40 0 40 80 0 80 0 0 -40z
m400 -40 l0 -80 -40 0 -40 0 0 40 0 40 -40 0 -40 0 0 40 0 40 80 0 80 0 0 -80z
m-6240 -160 l0 -160 -80 0 -80 0 0 160 0 160 80 0 80 0 0 -160z m5600 120 l0
-40 -40 0 -40 0 0 -40 0 -40 -40 0 -40 0 0 80 0 80 80 0 80 0 0 -40z m-6000
-80 l0 -40 -40 0 -40 0 0 40 0 40 40 0 40 0 0 -40z m1440 0 l0 -40 80 0 80 0
0 -80 0 -80 40 0 40 0 0 -40 0 -40 -40 0 -40 0 0 40 0 40 -160 0 -160 0 0
-120 0 -120 40 0 40 0 0 -40 0 -40 160 0 160 0 0 -400 0 -400 40 0 40 0 0 -40
0 -40 -120 0 -120 0 0 40 0 40 -40 0 -40 0 0 200 0 200 -40 0 -40 0 0 40 0 40
120 0 120 0 0 80 0 80 -40 0 -40 0 0 40 0 40 -160 0 -160 0 0 80 0 80 -80 0
-80 0 0 -40 0 -40 -120 0 -120 0 0 -40 0 -40 -40 0 -40 0 0 80 0 80 -40 0 -40
0 0 40 0 40 160 0 160 0 0 80 0 80 80 0 80 0 0 40 0 40 40 0 40 0 0 40 0 40
-40 0 -40 0 0 40 0 40 160 0 160 0 0 -40z m-1440 -160 l0 -40 -40 0 -40 0 0
-40 0 -40 -80 0 -80 0 0 40 0 40 40 0 40 0 0 40 0 40 80 0 80 0 0 -40z m6480
0 l0 -40 40 0 40 0 0 -40 0 -40 40 0 40 0 0 -120 0 -120 -40 0 -40 0 0 40 0
40 -40 0 -40 0 0 80 0 80 -120 0 -120 0 0 -40 0 -40 -80 0 -80 0 0 -40 0 -40
-40 0 -40 0 0 80 0 80 40 0 40 0 0 40 0 40 160 0 160 0 0 40 0 40 40 0 40 0 0
-40z m720 -160 l0 -40 -40 0 -40 0 0 -40 0 -40 -40 0 -40 0 0 -40 0 -40 -80 0
-80 0 0 -40 0 -40 -80 0 -80 0 0 40 0 40 80 0 80 0 0 80 0 80 80 0 80 0 0 40
0 40 80 0 80 0 0 -40z m-7520 -160 l0 -40 40 0 40 0 0 -40 0 -40 40 0 40 0 0
-40 0 -40 240 0 240 0 0 80 0 80 80 0 80 0 0 -40 0 -40 40 0 40 0 0 -80 0 -80
40 0 40 0 0 -80 0 -80 40 0 40 0 0 -80 0 -80 40 0 40 0 0 -40 0 -40 -40 0 -40
0 0 -120 0 -120 -40 0 -40 0 0 40 0 40 -40 0 -40 0 0 40 0 40 -40 0 -40 0 0
160 0 160 -40 0 -40 0 0 80 0 80 -40 0 -40 0 0 -80 0 -80 -80 0 -80 0 0 40 0
40 -80 0 -80 0 0 -40 0 -40 40 0 40 0 0 -40 0 -40 40 0 40 0 0 -40 0 -40 40 0
40 0 0 -40 0 -40 40 0 40 0 0 -40 0 -40 40 0 40 0 0 -40 0 -40 -40 0 -40 0 0
40 0 40 -120 0 -120 0 0 -80 0 -80 -40 0 -40 0 0 40 0 40 -40 0 -40 0 0 80 0
80 -40 0 -40 0 0 40 0 40 -40 0 -40 0 0 80 0 80 -40 0 -40 0 0 40 0 40 -40 0
-40 0 0 40 0 40 -40 0 -40 0 0 120 0 120 40 0 40 0 0 40 0 40 40 0 40 0 0 -40z
m-400 -80 l0 -40 40 0 40 0 0 -40 0 -40 -120 0 -120 0 0 80 0 80 80 0 80 0 0
-40z m6880 0 l0 -40 -40 0 -40 0 0 -80 0 -80 -80 0 -80 0 0 40 0 40 40 0 40 0
0 40 0 40 40 0 40 0 0 40 0 40 40 0 40 0 0 -40z m1040 -80 l0 -40 -80 0 -80 0
0 40 0 40 80 0 80 0 0 -40z m-5040 -240 l0 -200 40 0 40 0 0 -120 0 -120 40 0
40 0 0 -40 0 -40 40 0 40 0 0 -40 0 -40 40 0 40 0 0 -40 0 -40 40 0 40 0 0
-40 0 -40 40 0 40 0 0 -40 0 -40 80 0 80 0 0 -40 0 -40 40 0 40 0 0 -40 0 -40
40 0 40 0 0 -40 0 -40 40 0 40 0 0 -200 0 -200 -40 0 -40 0 0 40 0 40 -40 0
-40 0 0 80 0 80 -40 0 -40 0 0 40 0 40 -40 0 -40 0 0 40 0 40 -40 0 -40 0 0
80 0 80 -80 0 -80 0 0 40 0 40 -40 0 -40 0 0 40 0 40 -80 0 -80 0 0 40 0 40
-40 0 -40 0 0 40 0 40 -40 0 -40 0 0 80 0 80 -40 0 -40 0 0 80 0 80 -40 0 -40
0 0 80 0 80 40 0 40 0 0 80 0 80 40 0 40 0 0 80 0 80 40 0 40 0 0 -200z m-960
0 l0 -120 40 0 40 0 0 -80 0 -80 -80 0 -80 0 0 40 0 40 -40 0 -40 0 0 40 0 40
-40 0 -40 0 0 40 0 40 -40 0 -40 0 0 40 0 40 -40 0 -40 0 0 40 0 40 200 0 200
0 0 -120z m3120 -120 l0 -240 -40 0 -40 0 0 -80 0 -80 -80 0 -80 0 0 40 0 40
-40 0 -40 0 0 160 0 160 -40 0 -40 0 0 40 0 40 120 0 120 0 0 40 0 40 40 0 40
0 0 40 0 40 40 0 40 0 0 -240z m-4800 80 l0 -80 40 0 40 0 0 -40 0 -40 -160 0
-160 0 0 40 0 40 40 0 40 0 0 40 0 40 40 0 40 0 0 40 0 40 40 0 40 0 0 -80z
m3120 0 l0 -80 40 0 40 0 0 -80 0 -80 40 0 40 0 0 -80 0 -80 40 0 40 0 0 -80
0 -80 -120 0 -120 0 0 40 0 40 -40 0 -40 0 0 280 0 280 40 0 40 0 0 -80z
m4240 40 l0 -40 160 0 160 0 0 -40 0 -40 -120 0 -120 0 0 -40 0 -40 -120 0
-120 0 0 40 0 40 40 0 40 0 0 80 0 80 40 0 40 0 0 -40z m-7680 -80 l0 -40 -40
0 -40 0 0 40 0 40 40 0 40 0 0 -40z m6640 -40 l0 -80 80 0 80 0 0 40 0 40 40
0 40 0 0 40 0 40 200 0 200 0 0 -120 0 -120 -40 0 -40 0 0 -40 0 -40 -80 0
-80 0 0 40 0 40 -40 0 -40 0 0 40 0 40 40 0 40 0 0 40 0 40 -80 0 -80 0 0 -40
0 -40 -40 0 -40 0 0 -40 0 -40 -80 0 -80 0 0 -40 0 -40 -160 0 -160 0 0 40 0
40 40 0 40 0 0 40 0 40 40 0 40 0 0 40 0 40 40 0 40 0 0 40 0 40 40 0 40 0 0
-80z m-3360 -40 l0 -40 -80 0 -80 0 0 40 0 40 80 0 80 0 0 -40z m-3120 -160
l0 -40 80 0 80 0 0 -40 0 -40 40 0 40 0 0 -40 0 -40 80 0 80 0 0 -40 0 -40 40
0 40 0 0 -40 0 -40 40 0 40 0 0 -80 0 -80 40 0 40 0 0 -40 0 -40 40 0 40 0 0
-40 0 -40 -240 0 -240 0 0 40 0 40 80 0 80 0 0 120 0 120 -40 0 -40 0 0 40 0
40 -80 0 -80 0 0 -40 0 -40 -40 0 -40 0 0 -40 0 -40 40 0 40 0 0 -80 0 -80
-40 0 -40 0 0 40 0 40 -40 0 -40 0 0 160 0 160 -40 0 -40 0 0 80 0 80 -80 0
-80 0 0 40 0 40 120 0 120 0 0 -40z m8080 -40 l0 -80 40 0 40 0 0 -40 0 -40
80 0 80 0 0 -40 0 -40 -120 0 -120 0 0 -40 0 -40 -40 0 -40 0 0 -80 0 -80 40
0 40 0 0 -40 0 -40 -160 0 -160 0 0 40 0 40 40 0 40 0 0 40 0 40 40 0 40 0 0
80 0 80 -40 0 -40 0 0 120 0 120 -80 0 -80 0 0 40 0 40 200 0 200 0 0 -80z
m-1360 -120 l0 -120 40 0 40 0 0 -40 0 -40 -40 0 -40 0 0 -40 0 -40 -40 0 -40
0 0 -40 0 -40 -40 0 -40 0 0 -40 0 -40 -40 0 -40 0 0 -40 0 -40 -40 0 -40 0 0
-40 0 -40 -80 0 -80 0 0 -40 0 -40 -80 0 -80 0 0 -40 0 -40 -80 0 -80 0 0 40
0 40 40 0 40 0 0 80 0 80 40 0 40 0 0 40 0 40 120 0 120 0 0 40 0 40 80 0 80
0 0 40 0 40 -160 0 -160 0 0 40 0 40 80 0 80 0 0 40 0 40 40 0 40 0 0 80 0 80
120 0 120 0 0 40 0 40 40 0 40 0 0 -120z m-5040 0 l0 -40 40 0 40 0 0 -40 0
-40 80 0 80 0 0 -40 0 -40 -200 0 -200 0 0 40 0 40 40 0 40 0 0 80 0 80 40 0
40 0 0 -40z m5760 -40 l0 -80 -40 0 -40 0 0 -40 0 -40 -40 0 -40 0 0 -40 0
-40 -40 0 -40 0 0 -80 0 -80 -40 0 -40 0 0 -40 0 -40 -40 0 -40 0 0 -40 0 -40
-160 0 -160 0 0 40 0 40 40 0 40 0 0 40 0 40 40 0 40 0 0 40 0 40 40 0 40 0 0
40 0 40 40 0 40 0 0 40 0 40 40 0 40 0 0 40 0 40 40 0 40 0 0 40 0 40 40 0 40
0 0 40 0 40 80 0 80 0 0 -80z m-6320 -40 l0 -40 40 0 40 0 0 -40 0 -40 40 0
40 0 0 -40 0 -40 80 0 80 0 0 -40 0 -40 480 0 480 0 0 -40 0 -40 80 0 80 0 0
-40 0 -40 80 0 80 0 0 -40 0 -40 80 0 80 0 0 -40 0 -40 40 0 40 0 0 -40 0 -40
40 0 40 0 0 -80 0 -80 40 0 40 0 0 -80 0 -80 40 0 40 0 0 -80 0 -80 40 0 40 0
0 -120 0 -120 40 0 40 0 0 -40 0 -40 -40 0 -40 0 0 40 0 40 -40 0 -40 0 0 40
0 40 -40 0 -40 0 0 40 0 40 -40 0 -40 0 0 40 0 40 -80 0 -80 0 0 40 0 40 -40
0 -40 0 0 40 0 40 -40 0 -40 0 0 40 0 40 80 0 80 0 0 120 0 120 -40 0 -40 0 0
40 0 40 -120 0 -120 0 0 40 0 40 -40 0 -40 0 0 40 0 40 -160 0 -160 0 0 -40 0
-40 -200 0 -200 0 0 -40 0 -40 -80 0 -80 0 0 80 0 80 -40 0 -40 0 0 40 0 40
-40 0 -40 0 0 -80 0 -80 40 0 40 0 0 -160 0 -160 -80 0 -80 0 0 40 0 40 -40 0
-40 0 0 40 0 40 -40 0 -40 0 0 40 0 40 -40 0 -40 0 0 80 0 80 -40 0 -40 0 0
40 0 40 -40 0 -40 0 0 40 0 40 -40 0 -40 0 0 40 0 40 80 0 80 0 0 120 0 120
40 0 40 0 0 -40z m5120 0 l0 -40 -80 0 -80 0 0 -40 0 -40 -200 0 -200 0 0
-120 0 -120 80 0 80 0 0 -80 0 -80 -40 0 -40 0 0 -40 0 -40 -40 0 -40 0 0 -80
0 -80 -120 0 -120 0 0 -40 0 -40 -120 0 -120 0 0 -40 0 -40 -120 0 -120 0 0
-40 0 -40 -80 0 -80 0 0 40 0 40 40 0 40 0 0 40 0 40 40 0 40 0 0 40 0 40 80
0 80 0 0 40 0 40 80 0 80 0 0 40 0 40 40 0 40 0 0 40 0 40 -120 0 -120 0 0 80
0 80 -40 0 -40 0 0 -40 0 -40 -40 0 -40 0 0 -80 0 -80 -40 0 -40 0 0 40 0 40
-40 0 -40 0 0 40 0 40 -40 0 -40 0 0 40 0 40 80 0 80 0 0 40 0 40 80 0 80 0 0
40 0 40 120 0 120 0 0 40 0 40 120 0 120 0 0 40 0 40 80 0 80 0 0 40 0 40 280
0 280 0 0 -40z m-6640 -80 l0 -40 -120 0 -120 0 0 40 0 40 120 0 120 0 0 -40z
m9040 -40 l0 -80 -40 0 -40 0 0 -40 0 -40 -40 0 -40 0 0 -40 0 -40 -80 0 -80
0 0 120 0 120 120 0 120 0 0 40 0 40 40 0 40 0 0 -80z m-10080 -120 l0 -40
-40 0 -40 0 0 40 0 40 40 0 40 0 0 -40z m800 -40 l0 -80 -80 0 -80 0 0 -80 0
-80 -80 0 -80 0 0 40 0 40 -120 0 -120 0 0 -40 0 -40 -40 0 -40 0 0 40 0 40
-40 0 -40 0 0 40 0 40 200 0 200 0 0 40 0 40 40 0 40 0 0 40 0 40 120 0 120 0
0 -80z m8240 0 l0 -80 -80 0 -80 0 0 -40 0 -40 -80 0 -80 0 0 80 0 80 40 0 40
0 0 40 0 40 120 0 120 0 0 -80z m-7680 -80 l0 -80 -120 0 -120 0 0 40 0 40
-40 0 -40 0 0 40 0 40 160 0 160 0 0 -80z m9120 -40 l0 -40 -120 0 -120 0 0
40 0 40 120 0 120 0 0 -40z m-8800 -160 l0 -40 160 0 160 0 0 -40 0 -40 120 0
120 0 0 -40 0 -40 40 0 40 0 0 -40 0 -40 80 0 80 0 0 -40 0 -40 40 0 40 0 0
-40 0 -40 40 0 40 0 0 -40 0 -40 40 0 40 0 0 -40 0 -40 40 0 40 0 0 -40 0 -40
-200 0 -200 0 0 40 0 40 -120 0 -120 0 0 40 0 40 -40 0 -40 0 0 40 0 40 80 0
80 0 0 120 0 120 -160 0 -160 0 0 -80 0 -80 -40 0 -40 0 0 40 0 40 -80 0 -80
0 0 -40 0 -40 40 0 40 0 0 -40 0 -40 80 0 80 0 0 -40 0 -40 -200 0 -200 0 0
-40 0 -40 40 0 40 0 0 -40 0 -40 280 0 280 0 0 -40 0 -40 -40 0 -40 0 0 -40 0
-40 -160 0 -160 0 0 40 0 40 -160 0 -160 0 0 40 0 40 -80 0 -80 0 0 40 0 40
-40 0 -40 0 0 40 0 40 -80 0 -80 0 0 40 0 40 -40 0 -40 0 0 40 0 40 -40 0 -40
0 0 -40 0 -40 -40 0 -40 0 0 -40 0 -40 -80 0 -80 0 0 40 0 40 40 0 40 0 0 40
0 40 80 0 80 0 0 40 0 40 120 0 120 0 0 160 0 160 280 0 280 0 0 -40z m7840 0
l0 -40 -40 0 -40 0 0 -80 0 -80 -40 0 -40 0 0 80 0 80 -160 0 -160 0 0 -40 0
-40 -40 0 -40 0 0 -40 0 -40 40 0 40 0 0 -40 0 -40 40 0 40 0 0 -40 0 -40 160
0 160 0 0 40 0 40 160 0 160 0 0 -40 0 -40 80 0 80 0 0 -40 0 -40 40 0 40 0 0
-40 0 -40 -160 0 -160 0 0 40 0 40 -80 0 -80 0 0 -40 0 -40 -40 0 -40 0 0 -40
0 -40 -80 0 -80 0 0 -40 0 -40 -80 0 -80 0 0 -40 0 -40 -320 0 -320 0 0 40 0
40 240 0 240 0 0 40 0 40 80 0 80 0 0 40 0 40 -200 0 -200 0 0 40 0 40 40 0
40 0 0 40 0 40 -80 0 -80 0 0 80 0 80 -120 0 -120 0 0 -40 0 -40 -40 0 -40 0
0 -120 0 -120 80 0 80 0 0 -40 0 -40 -120 0 -120 0 0 -40 0 -40 -240 0 -240 0
0 80 0 80 -160 0 -160 0 0 -120 0 -120 80 0 80 0 0 -40 0 -40 -160 0 -160 0 0
40 0 40 -280 0 -280 0 0 -40 0 -40 -120 0 -120 0 0 40 0 40 80 0 80 0 0 40 0
40 80 0 80 0 0 40 0 40 120 0 120 0 0 40 0 40 120 0 120 0 0 40 0 40 120 0
120 0 0 40 0 40 80 0 80 0 0 40 0 40 120 0 120 0 0 40 0 40 240 0 240 0 0 40
0 40 120 0 120 0 0 40 0 40 120 0 120 0 0 40 0 40 320 0 320 0 0 -40z m-5600
-160 l0 -120 40 0 40 0 0 -40 0 -40 -120 0 -120 0 0 40 0 40 -40 0 -40 0 0 40
0 40 -40 0 -40 0 0 40 0 40 120 0 120 0 0 40 0 40 40 0 40 0 0 -120z m2160 40
l0 -80 40 0 40 0 0 -80 0 -80 -40 0 -40 0 0 -80 0 -80 -40 0 -40 0 0 -80 0
-80 -40 0 -40 0 0 -40 0 -40 -40 0 -40 0 0 -40 0 -40 -40 0 -40 0 0 200 0 200
40 0 40 0 0 80 0 80 40 0 40 0 0 80 0 80 40 0 40 0 0 40 0 40 40 0 40 0 0 -80z
m-2560 -80 l0 -80 40 0 40 0 0 -40 0 -40 40 0 40 0 0 -40 0 -40 40 0 40 0 0
-40 0 -40 80 0 80 0 0 -40 0 -40 80 0 80 0 0 -40 0 -40 80 0 80 0 0 -40 0 -40
-160 0 -160 0 0 40 0 40 -160 0 -160 0 0 40 0 40 -120 0 -120 0 0 40 0 40 -40
0 -40 0 0 40 0 40 -40 0 -40 0 0 40 0 40 -40 0 -40 0 0 80 0 80 40 0 40 0 0
-40 0 -40 80 0 80 0 0 40 0 40 40 0 40 0 0 40 0 40 40 0 40 0 0 -80z m-2480
-440 l0 -40 80 0 80 0 0 -40 0 -40 40 0 40 0 0 -40 0 -40 80 0 80 0 0 -40 0
-40 120 0 120 0 0 -40 0 -40 320 0 320 0 0 -40 0 -40 -120 0 -120 0 0 -40 0
-40 -160 0 -160 0 0 -40 0 -40 -240 0 -240 0 0 40 0 40 -160 0 -160 0 0 40 0
40 -120 0 -120 0 0 40 0 40 120 0 120 0 0 40 0 40 40 0 40 0 0 80 0 80 -40 0
-40 0 0 80 0 80 40 0 40 0 0 -40z m8560 -120 l0 -160 40 0 40 0 0 -40 0 -40
80 0 80 0 0 -40 0 -40 -120 0 -120 0 0 -40 0 -40 -120 0 -120 0 0 -40 0 -40
-280 0 -280 0 0 40 0 40 -160 0 -160 0 0 40 0 40 -120 0 -120 0 0 40 0 40
-120 0 -120 0 0 40 0 40 -40 0 -40 0 0 40 0 40 240 0 240 0 0 -40 0 -40 360 0
360 0 0 40 0 40 80 0 80 0 0 40 0 40 80 0 80 0 0 40 0 40 40 0 40 0 0 40 0 40
40 0 40 0 0 -160z m480 -120 l0 -40 -40 0 -40 0 0 40 0 40 40 0 40 0 0 -40z
m-9600 -160 l0 -40 -80 0 -80 0 0 40 0 40 80 0 80 0 0 -40z m9760 0 l0 -40
-80 0 -80 0 0 40 0 40 80 0 80 0 0 -40z m-4560 -6560 l0 -40 40 0 40 0 0 -40
0 -40 80 0 80 0 0 -40 0 -40 40 0 40 0 0 -40 0 -40 80 0 80 0 0 -40 0 -40 -80
0 -80 0 0 40 0 40 -120 0 -120 0 0 40 0 40 -40 0 -40 0 0 80 0 80 -40 0 -40 0
0 40 0 40 40 0 40 0 0 -40z m1360 -240 l0 -40 -160 0 -160 0 0 40 0 40 160 0
160 0 0 -40z"/>
<path d="M8400 10120 l0 -40 -40 0 -40 0 0 -80 0 -80 120 0 120 0 0 120 0 120
-80 0 -80 0 0 -40z"/>
<path d="M8160 10040 l0 -40 40 0 40 0 0 40 0 40 -40 0 -40 0 0 -40z"/>
<path d="M2880 9720 l0 -40 -40 0 -40 0 0 -120 0 -120 160 0 160 0 0 40 0 40
40 0 40 0 0 120 0 120 -160 0 -160 0 0 -40z"/>
<path d="M3040 9320 l0 -40 40 0 40 0 0 40 0 40 -40 0 -40 0 0 -40z"/>
<path d="M10400 9480 l0 -40 80 0 80 0 0 40 0 40 -80 0 -80 0 0 -40z"/>
<path d="M11280 9400 l0 -40 40 0 40 0 0 40 0 40 -40 0 -40 0 0 -40z"/>
<path d="M2720 8920 l0 -40 -40 0 -40 0 0 -80 0 -80 160 0 160 0 0 80 0 80
-40 0 -40 0 0 40 0 40 -80 0 -80 0 0 -40z"/>
<path d="M10880 8920 l0 -40 -40 0 -40 0 0 -40 0 -40 40 0 40 0 0 -40 0 -40
160 0 160 0 0 40 0 40 -40 0 -40 0 0 40 0 40 -40 0 -40 0 0 40 0 40 -80 0 -80
0 0 -40z"/>
</g>
</svg>
